<?xml version="1.0" encoding="iso-8859-1"?>
<!-- Generator: Adobe Illustrator 19.0.0, SVG Export Plug-In . SVG Version: 6.00 Build 0)  -->
<svg version="1.1" id="Layer_1" xmlns="http://www.w3.org/2000/svg" xmlns:xlink="http://www.w3.org/1999/xlink" x="0px" y="0px"
	 viewBox="0 0 512 512" style="enable-background:new 0 0 512 512;" xml:space="preserve">
<path style="fill:#FFE49C;" d="M507.566,312.263c-3.682-7.574-9.519-14.062-16.983-18.531l-17.346-10.389H0v23.215v5.705v48.772
	c0,8.029,6.509,14.538,14.538,14.538h106.373h347.038c24.329,0,44.051-19.722,44.051-44.051
	C512,324.738,510.439,318.17,507.566,312.263z"/>
<path style="fill:#FFBE0D;" d="M507.566,312.263c-3.682-7.574-9.519-14.062-16.983-18.531l-17.346-10.389H120.911v92.231h347.038
	c24.329,0,44.051-19.722,44.051-44.051C512,324.738,510.439,318.17,507.566,312.263z"/>
<path style="fill:#80D0E1;" d="M490.582,293.732L227.913,136.426h-55.178c0,22.302-22.673,40.66-51.822,43.062
	c-2.133,0.176-4.297,0.273-6.493,0.273c-32.207,0-58.316-19.402-58.316-43.335H14.538C6.509,136.426,0,142.934,0,150.963v155.594
	v5.705h120.911h386.654C503.882,304.69,498.047,298.202,490.582,293.732z"/>
<path style="fill:#48AEE2;" d="M490.582,293.732L227.913,136.426h-55.178c0,22.302-22.673,40.66-51.822,43.062v132.775h386.654
	C503.882,304.69,498.047,298.202,490.582,293.732z"/>
<polygon style="fill:#5AC2AD;" points="107.231,254.423 63.618,312.263 120.911,312.263 120.911,254.423 "/>
<polygon style="fill:#1DA49C;" points="190.58,254.423 120.911,254.423 120.911,312.263 146.967,312.263 "/>
<g>
	<path style="fill:#FFBE0D;" d="M319.641,266.843c5.581,0,11.162-2.13,15.419-6.388l33.572-33.572
		c1.295-1.295,2.37-2.723,3.271-4.226l-37.978-22.744l-29.703,29.703c-8.516,8.515-8.516,22.323,0,30.839
		C308.479,264.713,314.06,266.843,319.641,266.843z"/>
	<path style="fill:#FFBE0D;" d="M268.569,215.772c5.581,0,11.162-2.13,15.419-6.388l20.758-20.758
		c1.295-1.295,2.37-2.724,3.271-4.228l-37.978-22.744l-16.89,16.891c-8.516,8.515-8.516,22.323,0,30.839
		C257.407,213.642,262.988,215.772,268.569,215.772z"/>
</g>
<g>
</g>
<g>
</g>
<g>
</g>
<g>
</g>
<g>
</g>
<g>
</g>
<g>
</g>
<g>
</g>
<g>
</g>
<g>
</g>
<g>
</g>
<g>
</g>
<g>
</g>
<g>
</g>
<g>
</g>
</svg>
