<?xml version="1.0" encoding="iso-8859-1"?>
<!-- Generator: Adobe Illustrator 19.0.0, SVG Export Plug-In . SVG Version: 6.00 Build 0)  -->
<svg version="1.1" id="Layer_1" xmlns="http://www.w3.org/2000/svg" xmlns:xlink="http://www.w3.org/1999/xlink" x="0px" y="0px"
	 viewBox="0 0 259.143 259.143" style="enable-background:new 0 0 259.143 259.143;" xml:space="preserve">
<g>
	
		<rect x="50.146" y="56.945" transform="matrix(0.7071 -0.7071 0.7071 0.7071 -40.7725 98.4335)" style="fill:#F59D00;" width="96.575" height="82.977"/>
	
		<rect x="142.263" y="115.619" transform="matrix(0.7071 -0.7071 0.7071 0.7071 -65.0759 157.1072)" style="fill:#FFD155;" width="29.689" height="82.977"/>
	<path style="fill:#F59D00;" d="M245.118,245.118L245.118,245.118c-8.701,8.701-22.808,8.701-31.509,0l-42.919-42.919l31.509-31.509
		l42.919,42.919C253.819,222.31,253.819,236.417,245.118,245.118z"/>
	
		<rect x="128.462" y="2.144" transform="matrix(0.7071 -0.7071 0.7071 0.7071 3.3085 116.6926)" style="fill:#FFD155;" width="28.104" height="104.417"/>
	<g>
		
			<rect x="40.3" y="90.306" transform="matrix(0.7071 -0.7071 0.7071 0.7071 -84.8531 80.1743)" style="fill:#FFD155;" width="28.104" height="104.417"/>
		<path style="fill:#E87E04;" d="M250.421,208.305l-42.919-42.919c-2.914-2.912-7.626-2.925-10.559-0.044l-48.069-48.069
			l13.04-13.04l2.276,2.276c2.929,2.927,7.678,2.928,10.607,0l19.873-19.873c2.929-2.93,2.929-7.678,0-10.607L120.837,2.195
			c-2.928-2.926-7.677-2.929-10.607,0.001L90.358,22.069c-2.929,2.929-2.929,7.677,0,10.607l2.276,2.276L34.952,92.634l-2.276-2.276
			c-2.929-2.927-7.678-2.929-10.607,0L2.196,110.23c-2.927,2.927-2.93,7.676-0.001,10.607l73.834,73.834
			c2.931,2.929,7.678,2.928,10.607,0l19.873-19.873c2.927-2.929,2.928-7.677,0-10.607l-2.276-2.276l13.04-13.04l48.069,48.069
			c-2.883,2.933-2.87,7.645,0.044,10.559l42.919,42.919c5.625,5.624,13.104,8.722,21.058,8.722c16.461,0,29.78-13.318,29.78-29.78
			C259.143,221.408,256.045,213.93,250.421,208.305z M115.533,18.106l63.228,63.227l-9.267,9.267l-2.268-2.268
			c-0.003-0.003-0.006-0.007-0.009-0.01l-58.673-58.674c-0.003-0.003-0.007-0.006-0.011-0.01l-2.267-2.267L115.533,18.106z
			 M81.333,178.761l-63.228-63.228l9.267-9.266l2.267,2.267c0.003,0.003,0.006,0.007,0.01,0.011l58.674,58.673
			c0.003,0.003,0.007,0.006,0.01,0.009l2.268,2.268L81.333,178.761z M45.559,103.241l57.682-57.682l48.066,48.067
			c-6.306,6.306-51.114,51.114-57.681,57.681L45.559,103.241z M138.267,127.881l48.066,48.066l-10.387,10.387l-48.066-48.066
			L138.267,127.881z M239.814,239.814c-5.762,5.765-15.14,5.764-20.901,0l-37.616-37.615l20.902-20.902l37.615,37.616
			C245.576,224.675,245.576,234.051,239.814,239.814z"/>
	</g>
</g>
<g>
</g>
<g>
</g>
<g>
</g>
<g>
</g>
<g>
</g>
<g>
</g>
<g>
</g>
<g>
</g>
<g>
</g>
<g>
</g>
<g>
</g>
<g>
</g>
<g>
</g>
<g>
</g>
<g>
</g>
</svg>
